# xmcd CD database file
#
# Track frame offsets:
#	150
#	27950
#	46881
#	67662
#	91161
#	117283
#	138958
#	164013
#	189105
#	209959
#	228933
#
# Disc length: 3415 seconds
#
# Revision: 0
# Processed by: cddbd v1.4PL0 Copyright (c) Steve Scherf et al.
# Submitted via: NeoAudio 9.9.9
#
DISCID=8e0d550b
DTITLE=Various Artist - Salsa - la Mejor Música para Bailar en Círculo - Vol. 1
DYEAR=2003
DGENRE=Salsa
TTITLE0=Wayne Gorbea's Salsa Picante - Clavo y Martillo
TTITLE1=Ísaac Delgado - O estás Loca
TTITLE2=Mamborama - Cuba Te Llama
TTITLE3=Orquesta Tabaco y Ron - Sonea Mi Son
TTITLE4=Pedrito Calvo - El Negro está Cocinando
TTITLE5=Jerry Galante - Galante Boogaloo
TTITLE6=Grupo Caribe - Un Congo Me Dió la Letra
TTITLE7=Orquesta la Palabra - Careless Whispers
TTITLE8=Edwin y Su Son - Las Islas del Sabor
TTITLE9=Grupo Niche - Enamorada
TTITLE10=Polo Montañez - Un Montón de Estrellas
EXTD=YEAR: 2003
EXTT0=
EXTT1=
EXTT2=
EXTT3=
EXTT4=
EXTT5=
EXTT6=
EXTT7=
EXTT8=
EXTT9=
EXTT10=
PLAYORDER=
